<svg width="124" height="64" viewBox="0 0 124 64" fill="none" xmlns="http://www.w3.org/2000/svg">
<path d="M46.9147 23.0459L14.5286 23.1125C17.2144 18.4606 22.1694 15.5899 27.5924 15.5803L54.4036 15.5142C54.4272 19.689 51.0895 23.0223 46.9147 23.0459Z" fill="white"/>
<path d="M32.6698 47.7186L0.249837 47.8441C2.96962 43.1333 7.9246 40.2626 13.3136 40.3119L40.1837 40.2797C40.1824 44.3617 36.8107 47.7539 32.6698 47.7186Z" fill="white"/>
<path d="M23.1102 35.4471L7.38951 35.4783C10.0753 30.8264 15.0303 27.9557 20.4532 27.9461L30.5992 27.9154C30.5639 32.0562 27.2262 35.3895 23.1102 35.4471Z" fill="white"/>
<path d="M58.3413 36.0446C58.6076 37.4172 59.2324 38.4824 60.2157 39.2404C61.2195 39.9984 62.4487 40.3774 63.9032 40.3774C65.9312 40.3774 67.4062 39.6296 68.3281 38.1342L70.602 39.4248C69.1065 41.7397 66.8531 42.8971 63.8417 42.8971C61.4039 42.8971 59.4168 42.1391 57.8804 40.6232C56.3644 39.0868 55.6064 37.1509 55.6064 34.8155C55.6064 32.5006 56.3542 30.575 57.8496 29.0385C59.3451 27.5021 61.281 26.7339 63.6573 26.7339C65.9108 26.7339 67.7442 27.5328 69.1577 29.1307C70.5917 30.7081 71.3087 32.6133 71.3087 34.8462C71.3087 35.2355 71.278 35.6349 71.2166 36.0446H58.3413ZM63.6573 29.2536C62.2233 29.2536 61.0352 29.6633 60.0928 30.4828C59.1505 31.2817 58.5666 32.3572 58.3413 33.7093H68.6046C68.3793 32.2548 67.8057 31.1486 66.8838 30.3906C65.962 29.6326 64.8865 29.2536 63.6573 29.2536Z" fill="white"/>
<path d="M81.573 42.8971C79.2582 42.8971 77.3325 42.1289 75.7961 40.5925C74.2596 39.0356 73.4914 37.1099 73.4914 34.8155C73.4914 32.5211 74.2596 30.6057 75.7961 29.0693C77.3325 27.5123 79.2582 26.7339 81.573 26.7339C83.089 26.7339 84.4513 27.1026 85.6599 27.8401C86.8686 28.5571 87.77 29.5302 88.3641 30.7593L86.1209 32.0499C85.7316 31.2305 85.1273 30.575 84.3079 30.0833C83.5089 29.5916 82.5973 29.3458 81.573 29.3458C80.0366 29.3458 78.746 29.8682 77.7012 30.913C76.677 31.9577 76.1648 33.2586 76.1648 34.8155C76.1648 36.3519 76.677 37.6425 77.7012 38.6873C78.746 39.7321 80.0366 40.2545 81.573 40.2545C82.5973 40.2545 83.5192 40.0189 84.3386 39.5477C85.158 39.056 85.7829 38.4005 86.2131 37.5811L88.487 38.9024C87.8314 40.1111 86.8891 41.0841 85.6599 41.8216C84.4308 42.5386 83.0685 42.8971 81.573 42.8971Z" fill="white"/>
<path d="M98.7779 26.7339C100.581 26.7339 102.025 27.3075 103.111 28.4547C104.196 29.5814 104.739 31.1178 104.739 33.064V42.4976H102.066V33.2176C102.066 31.968 101.728 31.0052 101.052 30.3291C100.376 29.6326 99.4437 29.2844 98.2555 29.2844C96.924 29.2844 95.8485 29.7043 95.029 30.5442C94.2096 31.3637 93.7999 32.6338 93.7999 34.3546V42.4976H91.1265V20.9876H93.7999V29.3458C94.8856 27.6045 96.545 26.7339 98.7779 26.7339Z" fill="white"/>
<path d="M121.439 40.5617C119.861 42.1187 117.946 42.8971 115.693 42.8971C113.439 42.8971 111.524 42.1187 109.946 40.5617C108.389 39.0048 107.611 37.0894 107.611 34.8155C107.611 32.5416 108.389 30.6262 109.946 29.0693C111.524 27.5123 113.439 26.7339 115.693 26.7339C117.946 26.7339 119.861 27.5123 121.439 29.0693C123.016 30.6262 123.805 32.5416 123.805 34.8155C123.805 37.0894 123.016 39.0048 121.439 40.5617ZM115.693 40.2852C117.229 40.2852 118.52 39.7628 119.564 38.718C120.609 37.6733 121.132 36.3724 121.132 34.8155C121.132 33.2586 120.609 31.9577 119.564 30.913C118.52 29.8682 117.229 29.3458 115.693 29.3458C114.177 29.3458 112.896 29.8682 111.851 30.913C110.807 31.9577 110.284 33.2586 110.284 34.8155C110.284 36.3724 110.807 37.6733 111.851 38.718C112.896 39.7628 114.177 40.2852 115.693 40.2852Z" fill="white"/>
</svg>
