<svg width="152" height="79" viewBox="0 0 152 79" fill="none" xmlns="http://www.w3.org/2000/svg">
<path d="M57.4029 28.8545L17.5658 28.9647C20.8736 23.2547 26.9711 19.7282 33.6418 19.7117L66.6215 19.6069C66.6468 24.7291 62.5382 28.8219 57.4029 28.8545Z" fill="#D5225B"/>
<path d="M39.8793 59.1181L0.000399173 59.3006C3.35008 53.5184 9.44757 49.9919 16.0763 50.0476L49.1285 49.9845C49.1233 54.9928 44.9728 59.1578 39.8793 59.1181Z" fill="#D5225B"/>
<path d="M28.1192 44.073L8.78333 44.1251C12.0909 38.4156 18.1878 34.8894 24.8579 34.8729L37.3371 34.8263C37.29 39.9063 33.1817 43.9987 28.1192 44.073Z" fill="#D5225B"/>
<path d="M71.465 44.8084C71.7927 46.492 72.5613 47.7986 73.771 48.7283C75.0059 49.6581 76.518 50.1229 78.3074 50.1229C80.8024 50.1229 82.6169 49.2058 83.751 47.3714L86.5484 48.9545C84.7087 51.794 81.9365 53.2137 78.2318 53.2137C75.2327 53.2137 72.7882 52.2839 70.898 50.4245C69.0331 48.5399 68.1006 46.1653 68.1006 43.3007C68.1006 40.4613 69.0205 38.0992 70.8602 36.2146C72.6999 34.33 75.0815 33.3877 78.005 33.3877C80.7772 33.3877 83.0328 34.3677 84.7717 36.3277C86.5358 38.2626 87.4179 40.5995 87.4179 43.3384C87.4179 43.8158 87.3801 44.3058 87.3045 44.8084H71.465ZM78.005 36.4785C76.2408 36.4785 74.7791 36.981 73.6198 37.9862C72.4605 38.9661 71.7423 40.2854 71.465 41.9438H84.0912C83.814 40.1597 83.1084 38.8028 81.9743 37.8731C80.8402 36.9433 79.5171 36.4785 78.005 36.4785Z" fill="white"/>
<path d="M100.045 53.2137C97.1974 53.2137 94.8285 52.2714 92.9383 50.3868C91.0482 48.4771 90.1031 46.115 90.1031 43.3007C90.1031 40.4864 91.0482 38.1369 92.9383 36.2523C94.8285 34.3426 97.1974 33.3877 100.045 33.3877C101.91 33.3877 103.586 33.84 105.073 34.7446C106.56 35.6241 107.669 36.8177 108.4 38.3254L105.64 39.9084C105.161 38.9033 104.418 38.0992 103.41 37.4962C102.427 36.8931 101.305 36.5916 100.045 36.5916C98.1551 36.5916 96.5674 37.2323 95.2821 38.5138C94.022 39.7954 93.3919 41.391 93.3919 43.3007C93.3919 45.1853 94.022 46.7684 95.2821 48.0499C96.5674 49.3314 98.1551 49.9722 100.045 49.9722C101.305 49.9722 102.439 49.6832 103.448 49.1053C104.456 48.5022 105.224 47.6981 105.754 46.693L108.551 48.3137C107.744 49.7963 106.585 50.9899 105.073 51.8945C103.561 52.7739 101.885 53.2137 100.045 53.2137Z" fill="white"/>
<path d="M121.211 33.3877C123.429 33.3877 125.206 34.0913 126.541 35.4985C127.877 36.8805 128.545 38.7651 128.545 41.1523V52.7237H125.256V41.3407C125.256 39.8079 124.84 38.6269 124.009 37.7977C123.177 36.9433 122.03 36.5162 120.568 36.5162C118.93 36.5162 117.607 37.0313 116.599 38.0615C115.591 39.0667 115.087 40.6246 115.087 42.7353V52.7237H111.798V26.3394H115.087V36.5916C116.423 34.4557 118.464 33.3877 121.211 33.3877Z" fill="white"/>
<path d="M149.089 50.3491C147.148 52.2588 144.792 53.2137 142.02 53.2137C139.248 53.2137 136.891 52.2588 134.951 50.3491C133.035 48.4394 132.078 46.0899 132.078 43.3007C132.078 40.5115 133.035 38.162 134.951 36.2523C136.891 34.3426 139.248 33.3877 142.02 33.3877C144.792 33.3877 147.148 34.3426 149.089 36.2523C151.03 38.162 152 40.5115 152 43.3007C152 46.0899 151.03 48.4394 149.089 50.3491ZM142.02 50.0099C143.91 50.0099 145.498 49.3691 146.783 48.0876C148.068 46.8061 148.711 45.2104 148.711 43.3007C148.711 41.391 148.068 39.7954 146.783 38.5138C145.498 37.2323 143.91 36.5916 142.02 36.5916C140.155 36.5916 138.58 37.2323 137.294 38.5138C136.009 39.7954 135.367 41.391 135.367 43.3007C135.367 45.2104 136.009 46.8061 137.294 48.0876C138.58 49.3691 140.155 50.0099 142.02 50.0099Z" fill="white"/>
</svg>
