<svg width="59" height="59" viewBox="0 0 59 59" fill="none" xmlns="http://www.w3.org/2000/svg">
<path d="M1.4043 1.60517H0.822882L0.909933 2.18003L9.15438 56.6245L9.21875 57.0496H9.64874H21.0043H21.4343L21.4987 56.6245L29.7431 2.18003L29.8302 1.60517H29.2487H21.3932H20.9551L20.8975 2.03945L15.7154 41.1212L10.5333 2.03945L10.4757 1.60517H10.0376H1.4043ZM34.696 54.1601L34.6997 54.1641C36.9478 56.6315 40.2382 57.8274 44.4804 57.8274C48.7751 57.8274 52.1155 56.6053 54.4144 54.0889C56.7567 51.5818 57.8915 48.0207 57.8915 43.4829C57.8915 39.9945 57.2041 36.9296 55.811 34.3041C54.4214 31.6854 51.9066 28.8122 48.3087 25.6836C45.5228 23.2588 43.6224 21.2238 42.5718 19.5747C41.5833 17.9418 41.0915 16.192 41.0915 14.3163C41.0915 12.635 41.4386 11.4669 42.0474 10.7252C42.6408 10.0024 43.5493 9.60517 44.8693 9.60517C46.157 9.60517 47.0626 10.0049 47.6722 10.7452L47.677 10.751L47.6819 10.7566C48.2887 11.4502 48.6471 12.6489 48.6471 14.4718V17.2718V17.7718H49.1471H57.236H57.736V17.2718V15.0163C57.736 10.5364 56.656 7.02893 54.4206 4.57274C52.2253 2.05096 48.9844 0.827393 44.7915 0.827393C40.5464 0.827393 37.2329 2.05078 34.9352 4.56603C32.6459 7.02014 31.536 10.4765 31.536 14.8607C31.536 18.1003 32.2537 21.0364 33.698 23.6576L33.7002 23.6614C35.1397 26.2205 37.6496 29.0638 41.194 32.1912L41.1966 32.1934C43.9834 34.619 45.8536 36.6768 46.8495 38.3698L46.8494 38.3698L46.8528 38.3754C47.8361 39.9979 48.336 41.902 48.336 44.1052C48.336 45.974 47.954 47.2268 47.2944 47.9743L47.293 47.9759C46.6899 48.6652 45.7588 49.0496 44.4026 49.0496C43.0274 49.0496 42.079 48.6436 41.4608 47.9062C40.8285 47.1518 40.4693 45.966 40.4693 44.2607V40.5274V40.0274H39.9693H31.8804H31.3804V40.5274V43.6385C31.3804 48.1219 32.462 51.6536 34.6961 54.1601L34.696 54.1601Z" stroke="white"/>
</svg>
